<svg width="224" height="61" viewBox="0 0 224 61" fill="none" xmlns="http://www.w3.org/2000/svg">
<g clip-path="url(#clip0_201_7522)">
<path d="M131.849 44.9717C131.074 44.9717 130.487 44.7592 130.087 44.3343C129.687 43.9094 129.487 43.3469 129.487 42.6471V17.2262H131.624V43.097H134.586V44.9717H131.849ZM140.423 20.5632C139.923 20.5632 139.548 20.4382 139.298 20.1882C139.073 19.9383 138.961 19.6133 138.961 19.2134V18.8385C138.961 18.4385 139.073 18.1136 139.298 17.8636C139.548 17.6137 139.923 17.4887 140.423 17.4887C140.923 17.4887 141.285 17.6137 141.51 17.8636C141.76 18.1136 141.885 18.4385 141.885 18.8385V19.2134C141.885 19.6133 141.76 19.9383 141.51 20.1882C141.285 20.4382 140.923 20.5632 140.423 20.5632ZM139.373 25.7748H141.51V44.9717H139.373V25.7748ZM160.901 41.8972H160.788C160.288 42.972 159.551 43.8344 158.576 44.4843C157.626 45.1092 156.414 45.4216 154.939 45.4216C152.465 45.4216 150.527 44.5467 149.128 42.797C147.728 41.0473 147.028 38.5727 147.028 35.3732C147.028 32.1738 147.728 29.6992 149.128 27.9495C150.527 26.1997 152.465 25.3249 154.939 25.3249C156.414 25.3249 157.639 25.6498 158.614 26.2997C159.588 26.9246 160.313 27.7745 160.788 28.8493H160.901V25.7748H163.038V52.4705H160.901V41.8972ZM155.427 43.5094C156.176 43.5094 156.876 43.4094 157.526 43.2095C158.201 43.0095 158.788 42.722 159.288 42.3471C159.788 41.9472 160.176 41.4847 160.451 40.9598C160.751 40.4099 160.901 39.7975 160.901 39.1226V31.5114C160.901 30.8865 160.751 30.3116 160.451 29.7867C160.176 29.2617 159.788 28.8118 159.288 28.4369C158.788 28.0619 158.201 27.7745 157.526 27.5745C156.876 27.3496 156.176 27.2371 155.427 27.2371C153.502 27.2371 152.002 27.8495 150.927 29.0743C149.852 30.2991 149.315 31.9488 149.315 34.0235V36.723C149.315 38.7977 149.852 40.4474 150.927 41.6722C152.002 42.897 153.502 43.5094 155.427 43.5094ZM182.018 41.9347H181.868C181.693 42.3846 181.455 42.822 181.156 43.247C180.856 43.6719 180.481 44.0468 180.031 44.3718C179.581 44.6717 179.043 44.9217 178.418 45.1217C177.819 45.3216 177.106 45.4216 176.281 45.4216C174.232 45.4216 172.632 44.7967 171.482 43.5469C170.332 42.2721 169.757 40.4599 169.757 38.1103V25.7748H171.895V37.6979C171.895 39.6725 172.319 41.1348 173.169 42.0847C174.019 43.0345 175.244 43.5094 176.844 43.5094C177.519 43.5094 178.156 43.4219 178.756 43.247C179.381 43.072 179.931 42.8095 180.406 42.4596C180.906 42.1096 181.293 41.6722 181.568 41.1473C181.868 40.5974 182.018 39.96 182.018 39.2351V25.7748H184.155V44.9717H182.018V41.9347ZM192.197 20.5632C191.697 20.5632 191.322 20.4382 191.072 20.1882C190.847 19.9383 190.734 19.6133 190.734 19.2134V18.8385C190.734 18.4385 190.847 18.1136 191.072 17.8636C191.322 17.6137 191.697 17.4887 192.197 17.4887C192.697 17.4887 193.059 17.6137 193.284 17.8636C193.534 18.1136 193.659 18.4385 193.659 18.8385V19.2134C193.659 19.6133 193.534 19.9383 193.284 20.1882C193.059 20.4382 192.697 20.5632 192.197 20.5632ZM191.147 25.7748H193.284V44.9717H191.147V25.7748ZM212.674 41.8972H212.562C212.062 42.972 211.325 43.8344 210.35 44.4843C209.4 45.1092 208.188 45.4216 206.713 45.4216C204.238 45.4216 202.301 44.5467 200.901 42.797C199.502 41.0473 198.802 38.5727 198.802 35.3732C198.802 32.1738 199.502 29.6992 200.901 27.9495C202.301 26.1997 204.238 25.3249 206.713 25.3249C208.188 25.3249 209.412 25.6498 210.387 26.2997C211.362 26.9246 212.087 27.7745 212.562 28.8493H212.674V17.2262H214.812V44.9717H212.674V41.8972ZM207.2 43.5094C207.95 43.5094 208.65 43.4094 209.3 43.2095C209.975 43.0095 210.562 42.722 211.062 42.3471C211.562 41.9472 211.95 41.4847 212.224 40.9598C212.524 40.4099 212.674 39.7975 212.674 39.1226V31.5114C212.674 30.8865 212.524 30.3116 212.224 29.7867C211.95 29.2617 211.562 28.8118 211.062 28.4369C210.562 28.0619 209.975 27.7745 209.3 27.5745C208.65 27.3496 207.95 27.2371 207.2 27.2371C205.276 27.2371 203.776 27.8495 202.701 29.0743C201.626 30.2991 201.089 31.9488 201.089 34.0235V36.723C201.089 38.7977 201.626 40.4474 202.701 41.6722C203.776 42.897 205.276 43.5094 207.2 43.5094Z" fill="#2F3137"/>
<path d="M65.4898 23.1108C71.0966 19.8289 77.2268 21.4261 80.6555 25.2641C84.2579 29.2719 84.752 35.2252 81.8175 39.7282C80.0752 42.3667 77.6918 44.0767 74.6128 44.8367C71.5338 45.5967 68.5397 45.0571 65.7799 43.57V50.8736C65.7799 52.6469 64.6763 53.9807 63.0494 54.0973C61.3641 54.2417 59.9399 52.9927 59.8538 51.2511C59.8246 50.9015 59.8538 50.5531 59.8538 50.2048V24.8537C59.8377 24.3922 59.8964 23.9311 60.0274 23.4883C60.4341 22.4129 61.1893 21.7453 62.3233 21.5705C63.3978 21.3679 64.3279 21.7453 65.083 22.5585C65.2324 22.7321 65.3683 22.9167 65.4898 23.1108ZM65.8091 33.2175C65.6355 35.9485 67.9302 39.2887 71.8518 39.2887C75.164 39.3178 77.8667 36.5869 77.8958 33.2467C77.8958 29.8773 75.2223 27.1477 71.8518 27.1768C68.0468 27.2059 65.6634 30.4296 65.8091 33.2175Z" fill="#2F3137"/>
<path d="M48.0277 22.9072C48.2317 22.7628 48.2317 22.588 48.2888 22.4423C48.8995 21.1643 50.178 20.4967 51.5439 20.7577C52.1911 20.8771 52.7788 21.212 53.2113 21.7079C53.6439 22.2037 53.8958 22.8314 53.926 23.4886V41.1763C53.9463 41.6403 53.8771 42.1039 53.722 42.5418C53.257 43.7033 52.3865 44.3708 51.1372 44.4583C49.917 44.5165 48.9831 43.9643 48.3762 42.9193C48.2779 42.7407 48.1907 42.5563 48.1152 42.367C47.9112 42.3087 47.7959 42.4835 47.6793 42.5709C40.8509 47.421 31.4606 43.9934 29.2596 35.7449C27.5744 29.4711 31.1767 22.8781 37.2778 21.0237C40.8509 19.9191 44.2467 20.4714 47.3891 22.5335C47.6204 22.6235 47.836 22.7496 48.0277 22.9072ZM34.8082 32.6086C34.8042 33.1669 34.8728 33.7234 35.0122 34.2641C36.0867 38.4758 41.0258 40.2757 44.3963 37.6626C47.4183 35.3383 47.7084 30.8365 45.0298 28.136C43.636 26.7427 41.9216 26.1017 39.9462 26.4222C36.9293 26.9441 34.8373 29.5002 34.8082 32.6086Z" fill="#2F3137"/>
<path d="M97.6557 27.7646C97.6729 27.7852 97.6944 27.8016 97.7187 27.813C97.743 27.8243 97.7695 27.8301 97.7963 27.8301C97.8231 27.8301 97.8496 27.8243 97.8739 27.813C97.8982 27.8016 97.9197 27.7852 97.9369 27.7646C98.6744 26.8653 99.4106 25.9913 100.121 25.1464C101.022 24.071 101.895 22.9931 102.795 21.9228C103.608 20.993 104.625 20.5864 105.845 20.9094C106.29 21.0247 106.702 21.2432 107.047 21.5473C107.391 21.8515 107.66 22.2326 107.83 22.6598C107.999 23.087 108.066 23.5483 108.024 24.0061C107.982 24.4639 107.833 24.9054 107.588 25.2946C107.372 25.6213 107.129 25.9297 106.862 26.2168C105.235 28.1915 103.608 30.1434 101.952 32.1131C101.437 32.7578 101.6 32.5438 102.125 33.2531L107.193 39.304C108.76 40.9899 108.08 43.5359 105.966 44.2212C104.805 44.6012 103.584 44.2212 102.771 43.2332C101.318 41.4902 99.8946 39.7764 98.4413 38.0398C98.2968 37.865 98.1802 37.7194 98.0345 37.5458C97.7444 37.1975 97.7152 37.1975 97.425 37.575C96.1174 39.114 94.8389 40.6821 93.5313 42.2211C93.2411 42.5707 92.9788 42.919 92.6887 43.2344C91.585 44.5125 89.7832 44.7152 88.5073 43.6702C87.1997 42.596 87.0552 40.7657 88.1272 39.4294C89.929 37.252 91.7295 35.1024 93.5313 32.9529C93.8797 32.5172 93.8797 32.5172 93.5313 32.1106C91.7878 30.0193 90.0455 27.9306 88.302 25.8659C87.5963 25.0274 87.2161 24.1268 87.5126 23.0501C87.6307 22.5435 87.881 22.0772 88.2379 21.6988C88.5949 21.3203 89.0458 21.0431 89.5447 20.8955C90.0437 20.7478 90.5728 20.735 91.0784 20.8583C91.5839 20.9815 92.0477 21.2365 92.4226 21.5972C92.5962 21.772 92.771 21.9772 92.9446 22.1786C94.2953 23.8101 97.0069 27.0021 97.6557 27.7646Z" fill="#8DBC1A"/>
<path d="M15.0518 20.0612C18.2195 20.0612 20.95 21.1366 23.3322 23.1696C24.669 24.3311 24.8425 26.1893 23.7123 27.4382C23.2467 27.9666 22.6067 28.3101 21.9089 28.4061C21.2112 28.5021 20.5021 28.3443 19.911 27.9614C19.65 27.7866 19.446 27.5814 19.185 27.4091C16.1326 24.9404 11.3911 25.6953 9.24089 28.9494C6.85876 32.5505 8.83415 37.5171 13.1346 38.6204C15.4002 39.2018 17.463 38.7952 19.294 37.3132C20.2227 36.5291 21.2694 36.2682 22.4021 36.7039C22.841 36.8669 23.2345 37.1322 23.5501 37.478C23.8656 37.8237 24.094 38.2397 24.2162 38.6915C24.3384 39.1432 24.3509 39.6177 24.2527 40.0752C24.1545 40.5328 23.9483 40.9603 23.6515 41.3222C23.4123 41.5786 23.1584 41.8209 22.8912 42.048C20.1036 44.2013 16.9359 45.1551 13.4197 44.6915C8.85822 44.0582 5.45863 41.6705 3.48324 37.5171C0.577804 31.389 3.13479 23.4571 10.7462 20.787C12.1247 20.2833 13.5842 20.0373 15.0518 20.0612Z" fill="#2F3137"/>
<path d="M111.889 18.4579H110.901V17.8379H113.588V18.4579H112.6V21.1317H111.886V18.4579H111.889Z" fill="#2F3137"/>
<path d="M116.758 21.1349L116.755 19.1573L115.848 20.7851H115.527L114.622 19.1986V21.1349H113.953V17.8379H114.542L115.696 19.8854L116.833 17.8379H117.419L117.428 21.1349H116.758Z" fill="#2F3137"/>
</g>
<defs>
<clipPath id="clip0_201_7522">
<rect width="224" height="48" fill="white" transform="translate(0 12.1631)"/>
</clipPath>
</defs>
</svg>
