<svg width="277" height="59" viewBox="0 0 277 59" fill="none" xmlns="http://www.w3.org/2000/svg">
    <path d="M89.579 10.528C89.961 10.999 90.5995 11.1647 91.1307 10.8722C98.8775 6.60547 107.135 9.09273 111.851 14.7088C116.999 20.836 117.696 29.9069 113.494 36.77C111.026 40.7957 107.587 43.4159 103.202 44.5553C99.1917 45.5994 95.366 45.0613 91.728 43.2207C91.1726 42.9397 90.5995 43.1614 90.5995 43.7838C90.5954 47.1179 90.6037 50.4474 90.6119 53.7814C90.6161 56.477 89.019 58.5076 86.7333 58.7071C84.3189 58.9154 82.307 57.0046 82.1535 54.3445C82.1245 53.8169 82.1452 53.2804 82.1452 52.7484C82.1452 39.8469 82.1452 26.9453 82.1369 14.0394C82.1369 13.3256 82.166 12.6162 82.3983 11.9468C82.9625 10.3196 84.0659 9.30437 85.6547 9.00289C87.2062 8.71028 88.5295 9.26004 89.579 10.528ZM90.6244 26.8478C90.3755 31.002 93.6568 36.0917 99.2363 36.1316C103.982 36.1671 107.832 32.0173 107.852 26.932C107.873 21.7892 104.019 17.6438 99.2197 17.6571C93.8559 17.6749 90.4211 22.5916 90.6244 26.8478Z" fill="white" />
    <path d="M64.6215 10.6314C65.008 10.9164 65.4539 10.8585 65.6438 10.4174C66.4942 8.46661 68.3319 7.4469 70.3024 7.83705C72.1774 8.20504 73.5671 9.89421 73.7123 11.9868C73.7289 12.2351 73.7206 12.4834 73.7206 12.7317C73.7206 21.4879 73.7206 30.2396 73.7247 38.9958C73.7247 39.7096 73.6874 40.419 73.4385 41.084C72.7665 42.8663 71.5137 43.8816 69.7382 43.9968C68 44.1077 66.6726 43.2609 65.7973 41.6426C65.7638 41.5802 65.7323 41.5164 65.7021 41.4518C65.5118 41.0439 65.1677 40.8198 64.81 41.0929C55.0739 48.4791 41.6582 43.2742 38.5262 30.6918C36.1368 21.0933 41.26 11.0602 49.988 8.20947C55.1029 6.53803 59.944 7.3538 64.4283 10.4927C64.493 10.5378 64.5572 10.584 64.6215 10.6314ZM46.3873 25.9169C46.4039 26.7682 46.4744 27.6106 46.6735 28.4396C48.2167 34.8682 55.2605 37.5993 60.085 33.6401C64.3869 30.1111 64.8349 23.2036 61.006 19.1026C59.0065 16.9612 56.559 16.0213 53.7547 16.5002C49.4114 17.2494 46.4039 21.1509 46.3873 25.9169Z" fill="white" />
    <path d="M136.028 18.5441C136.169 18.6826 136.41 18.6501 136.531 18.4941C137.589 17.1385 138.619 15.826 139.645 14.5096C140.919 12.8736 142.167 11.2199 143.466 9.60612C144.619 8.16966 146.075 7.57556 147.83 8.06325C150.58 8.83025 151.833 12.1687 150.336 14.7579C150.041 15.2677 149.655 15.7155 149.294 16.181C146.963 19.1825 144.627 22.1751 142.296 25.1766C141.612 26.0589 141.748 25.8904 142.338 26.6441C144.86 29.8895 147.39 33.1259 149.912 36.3713C151.928 38.9649 150.954 42.6802 147.996 43.6866C146.353 44.2452 144.607 43.6777 143.437 42.1748C141.379 39.5324 139.33 36.8811 137.277 34.2343C137.086 33.9905 136.899 33.7378 136.7 33.5028C136.264 32.9885 136.244 32.9752 135.808 33.5294C133.954 35.8925 132.112 38.2688 130.27 40.6408C129.868 41.1595 129.482 41.6915 129.071 42.2058C127.516 44.1654 124.906 44.458 123.106 42.8797C121.252 41.2526 121.011 38.4506 122.575 36.4289C125.134 33.1259 127.711 29.8363 130.274 26.5377C130.776 25.8904 130.776 25.8816 130.27 25.2343C127.789 22.0466 125.309 18.8589 122.816 15.68C121.824 14.4165 121.289 13.0421 121.683 11.3662C122.48 7.96571 126.304 6.75536 128.685 9.1672C128.951 9.43321 129.175 9.74356 129.411 10.0406C131.618 12.8736 133.821 15.7111 136.028 18.5441Z" fill="#8DBC1A" />
    <path d="M18.1616 6.7512C22.6625 6.74233 26.591 8.38273 29.9926 11.4951C31.9174 13.2552 32.1331 16.1104 30.536 18.0256C29.1422 19.7015 26.8772 20.0429 25.1183 18.8281C24.7574 18.5798 24.438 18.265 24.102 17.9724C19.7628 14.2217 12.9886 15.3389 9.90644 20.3089C6.48407 25.8286 9.30908 33.3966 15.4527 35.0725C18.6677 35.9504 21.642 35.3297 24.2347 33.0553C25.5746 31.8804 27.0349 31.4592 28.6776 32.1065C31.3699 33.1617 32.27 36.7573 30.4614 39.1336C30.1461 39.5459 29.7728 39.9006 29.3787 40.2243C25.3838 43.5139 20.8787 44.9593 15.8676 44.2721C9.33812 43.3765 4.49703 39.7632 1.66372 33.3922C-2.4846 24.0508 1.18252 11.965 12.0138 7.85514C14.0796 7.07484 15.963 6.7512 18.1616 6.7512Z" fill="white" />
    <path d="M158.561 5.8082H157.184V4.94366H160.93V5.8082H159.553V9.53679H158.557V5.8082H158.561Z" fill="white" />
    <path d="M165.381 9.53976L165.377 6.78211L164.112 9.05207H163.664L162.403 6.83975V9.53976H161.47V4.9422H162.291L163.9 7.79739L165.485 4.9422H166.302L166.315 9.53976H165.381Z" fill="white" />
    <path d="M180.635 39.8086C179.79 39.8086 179.15 39.577 178.714 39.1137C178.278 38.6504 178.06 38.0372 178.06 37.2742V9.55896H180.39V37.7647H183.619V39.8086H180.635ZM189.983 13.1971C189.438 13.1971 189.029 13.0608 188.756 12.7883C188.511 12.5158 188.389 12.1615 188.389 11.7255V11.3167C188.389 10.8807 188.511 10.5264 188.756 10.2539C189.029 9.98136 189.438 9.8451 189.983 9.8451C190.528 9.8451 190.923 9.98136 191.168 10.2539C191.441 10.5264 191.577 10.8807 191.577 11.3167V11.7255C191.577 12.1615 191.441 12.5158 191.168 12.7883C190.923 13.0608 190.528 13.1971 189.983 13.1971ZM188.838 18.8791H191.168V39.8086H188.838V18.8791ZM212.309 36.4566H212.186C211.641 37.6284 210.837 38.5686 209.774 39.2772C208.739 39.9585 207.417 40.2991 205.809 40.2991C203.111 40.2991 200.999 39.3453 199.473 37.4377C197.947 35.53 197.184 32.8321 197.184 29.3439C197.184 25.8556 197.947 23.1577 199.473 21.25C200.999 19.3424 203.111 18.3886 205.809 18.3886C207.417 18.3886 208.752 18.7429 209.815 19.4514C210.878 20.1327 211.668 21.0593 212.186 22.2311H212.309V18.8791H214.639V47.9842H212.309V36.4566ZM206.341 38.2144C207.158 38.2144 207.921 38.1053 208.63 37.8873C209.366 37.6693 210.006 37.3559 210.551 36.9471C211.096 36.5111 211.518 36.007 211.818 35.4347C212.145 34.8351 212.309 34.1674 212.309 33.4316V25.1334C212.309 24.4521 212.145 23.8253 211.818 23.253C211.518 22.6808 211.096 22.1902 210.551 21.7814C210.006 21.3727 209.366 21.0593 208.63 20.8413C207.921 20.596 207.158 20.4734 206.341 20.4734C204.242 20.4734 202.607 21.141 201.435 22.4764C200.263 23.8117 199.678 25.6103 199.678 27.8723V30.8155C199.678 33.0774 200.263 34.876 201.435 36.2113C202.607 37.5467 204.242 38.2144 206.341 38.2144ZM235.332 36.4975H235.168C234.978 36.988 234.719 37.4649 234.392 37.9282C234.065 38.3915 233.656 38.8003 233.165 39.1545C232.675 39.4816 232.089 39.7541 231.408 39.9721C230.754 40.1901 229.977 40.2991 229.078 40.2991C226.843 40.2991 225.099 39.6178 223.845 38.2552C222.592 36.8654 221.965 34.8896 221.965 32.3279V18.8791H224.295V31.8783C224.295 34.0312 224.758 35.6254 225.685 36.661C226.611 37.6966 227.947 38.2144 229.691 38.2144C230.427 38.2144 231.122 38.119 231.776 37.9282C232.457 37.7374 233.056 37.4513 233.574 37.0698C234.119 36.6882 234.542 36.2113 234.841 35.639C235.168 35.0395 235.332 34.3446 235.332 33.5543V18.8791H237.662V39.8086H235.332V36.4975ZM246.429 13.1971C245.884 13.1971 245.476 13.0608 245.203 12.7883C244.958 12.5158 244.835 12.1615 244.835 11.7255V11.3167C244.835 10.8807 244.958 10.5264 245.203 10.2539C245.476 9.98136 245.884 9.8451 246.429 9.8451C246.974 9.8451 247.37 9.98136 247.615 10.2539C247.887 10.5264 248.024 10.8807 248.024 11.3167V11.7255C248.024 12.1615 247.887 12.5158 247.615 12.7883C247.37 13.0608 246.974 13.1971 246.429 13.1971ZM245.285 18.8791H247.615V39.8086H245.285V18.8791ZM268.755 36.4566H268.633C268.088 37.6284 267.284 38.5686 266.221 39.2772C265.185 39.9585 263.864 40.2991 262.256 40.2991C259.558 40.2991 257.446 39.3453 255.92 37.4377C254.394 35.53 253.631 32.8321 253.631 29.3439C253.631 25.8556 254.394 23.1577 255.92 21.25C257.446 19.3424 259.558 18.3886 262.256 18.3886C263.864 18.3886 265.199 18.7429 266.262 19.4514C267.325 20.1327 268.115 21.0593 268.633 22.2311H268.755V9.55896H271.085V39.8086H268.755V36.4566ZM262.787 38.2144C263.605 38.2144 264.368 38.1053 265.076 37.8873C265.812 37.6693 266.453 37.3559 266.998 36.9471C267.543 36.5111 267.965 36.007 268.265 35.4347C268.592 34.8351 268.755 34.1674 268.755 33.4316V25.1334C268.755 24.4521 268.592 23.8253 268.265 23.253C267.965 22.6808 267.543 22.1902 266.998 21.7814C266.453 21.3727 265.812 21.0593 265.076 20.8413C264.368 20.596 263.605 20.4734 262.787 20.4734C260.689 20.4734 259.054 21.141 257.882 22.4764C256.71 23.8117 256.124 25.6103 256.124 27.8723V30.8155C256.124 33.0774 256.71 34.876 257.882 36.2113C259.054 37.5467 260.689 38.2144 262.787 38.2144Z" fill="white" />
</svg>
