<svg width="21" height="17" viewBox="0 0 21 17" fill="none" xmlns="http://www.w3.org/2000/svg">
<path d="M20.7107 14.8673L11.7077 0.583794C11.6014 0.416017 11.4544 0.277835 11.2803 0.182087C11.1063 0.0863392 10.9109 0.0361328 10.7123 0.0361328C10.5137 0.0361328 10.3183 0.0863392 10.1442 0.182087C9.97022 0.277835 9.82322 0.416017 9.71691 0.583794L0.713854 14.8673C0.605541 15.0448 0.546311 15.2478 0.54222 15.4557C0.538128 15.6636 0.589324 15.8688 0.690569 16.0504C0.791815 16.232 0.939479 16.3835 1.11846 16.4893C1.29744 16.5951 1.50131 16.6515 1.70923 16.6527H19.7153C19.9233 16.6515 20.1271 16.5951 20.3061 16.4893C20.4851 16.3835 20.6328 16.232 20.734 16.0504C20.8353 15.8688 20.8865 15.6636 20.8824 15.4557C20.8783 15.2478 20.819 15.0448 20.7107 14.8673V14.8673ZM11.605 13.43C11.605 13.5105 11.573 13.5877 11.5161 13.6446C11.4592 13.7015 11.382 13.7335 11.3015 13.7335H10.1231C10.0426 13.7335 9.96539 13.7015 9.90847 13.6446C9.85155 13.5877 9.81957 13.5105 9.81957 13.43V12.6266C9.82073 12.5464 9.85307 12.4699 9.90975 12.4132C9.96642 12.3565 10.043 12.3242 10.1231 12.323H11.3015C11.3816 12.3242 11.4582 12.3565 11.5148 12.4132C11.5715 12.4699 11.6039 12.5464 11.605 12.6266V13.43ZM11.605 11.0911C11.605 11.1716 11.573 11.2488 11.5161 11.3057C11.4592 11.3626 11.382 11.3946 11.3015 11.3946H10.1231C10.0426 11.3946 9.96539 11.3626 9.90847 11.3057C9.85155 11.2488 9.81957 11.1716 9.81957 11.0911V5.77048C9.81956 5.68957 9.8514 5.6119 9.9082 5.55427C9.96499 5.49663 10.0422 5.46367 10.1231 5.46249H11.3015C11.3824 5.46367 11.4596 5.49663 11.5164 5.55427C11.5732 5.6119 11.605 5.68957 11.605 5.77048V11.0911Z" fill="#987C00"/>
</svg>
