<svg width="18" height="18" viewBox="0 0 18 18" fill="none" xmlns="http://www.w3.org/2000/svg">
<path d="M16.5642 15.4425H1.43669C1.26201 15.4415 1.09073 15.3942 0.940363 15.3053C0.789996 15.2164 0.665939 15.0891 0.580879 14.9365C0.495819 14.784 0.452809 14.6115 0.456246 14.4369C0.459683 14.2622 0.509444 14.0916 0.600442 13.9425L8.16419 1.94253C8.25351 1.80157 8.377 1.68548 8.52321 1.60504C8.66941 1.5246 8.83357 1.48242 9.00044 1.48242C9.16731 1.48242 9.33147 1.5246 9.47768 1.60504C9.62388 1.68548 9.74737 1.80157 9.83669 1.94253L17.4004 13.9425C17.4914 14.0916 17.5412 14.2622 17.5446 14.4369C17.5481 14.6115 17.5051 14.784 17.42 14.9365C17.3349 15.0891 17.2109 15.2164 17.0605 15.3053C16.9101 15.3942 16.7389 15.4415 16.5642 15.4425V15.4425ZM2.36669 13.9425H15.6342L9.00044 3.41253L2.36669 13.9425Z" fill="url(#paint0_linear_1_38569)"/>
<path d="M9.495 6.02539H8.505C8.36417 6.02539 8.25 6.13956 8.25 6.28039V10.7541C8.25 10.895 8.36417 11.0091 8.505 11.0091H9.495C9.63583 11.0091 9.75 10.895 9.75 10.7541V6.28039C9.75 6.13956 9.63583 6.02539 9.495 6.02539Z" fill="url(#paint1_linear_1_38569)"/>
<path d="M9.495 11.7891H8.505C8.36417 11.7891 8.25 11.9032 8.25 12.0441V12.7191C8.25 12.8599 8.36417 12.9741 8.505 12.9741H9.495C9.63583 12.9741 9.75 12.8599 9.75 12.7191V12.0441C9.75 11.9032 9.63583 11.7891 9.495 11.7891Z" fill="url(#paint2_linear_1_38569)"/>
<defs>
<linearGradient id="paint0_linear_1_38569" x1="15.4087" y1="17.3218" x2="15.4087" y2="1.48242" gradientUnits="userSpaceOnUse">
<stop stop-color="#F05600"/>
<stop offset="1" stop-color="#FFE46E"/>
</linearGradient>
<linearGradient id="paint1_linear_1_38569" x1="9.5625" y1="11.68" x2="9.5625" y2="6.02539" gradientUnits="userSpaceOnUse">
<stop stop-color="#F05600"/>
<stop offset="1" stop-color="#FFE46E"/>
</linearGradient>
<linearGradient id="paint2_linear_1_38569" x1="9.5625" y1="13.1336" x2="9.5625" y2="11.7891" gradientUnits="userSpaceOnUse">
<stop stop-color="#F05600"/>
<stop offset="1" stop-color="#FFE46E"/>
</linearGradient>
</defs>
</svg>